PathFileType	4	(X/Y/Z)	RBDS05\RBDS05runT45.trc
DataRate	CameraRate	NumFrames	NumMarkers	Units	OrigDataRate	OrigDataStartFrame	OrigNumFrames
150.000000	150.000000	4	32	mm	150.000000	2812	4500
Frame#	Time	L.ASIS			L.Heel.Bottom			L.Heel.Lateral			L.Heel.Top			L.Iliac.Crest			L.MT1			L.MT5			L.PSIS			L.Shank.Bottom.Lateral			L.Shank.Bottom.Medial			L.Shank.Top.Lateral			L.Shank.Top.Medial			L.Thigh.Bottom.Lateral			L.Thigh.Bottom.Medial			L.Thigh.Top.Lateral			L.Thigh.Top.Medial			R.ASIS			R.ASY			R.Heel.Bottom			R.Heel.Lateral			R.Heel.Top			R.Iliac.Crest			R.MT5			R.PSIS			R.Shank.Bottom.Lateral			R.Shank.Bottom.Medial			R.Shank.Top.Lateral			R.Shank.Top.Medial			R.Thigh.Bottom.Lateral			R.Thigh.Bottom.Medial			R.Thigh.Top.Lateral			R.Thigh.Top.Medial			
		X1	Y1	Z1	X2	Y2	Z2	X3	Y3	Z3	X4	Y4	Z4	X5	Y5	Z5	X6	Y6	Z6	X7	Y7	Z7	X8	Y8	Z8	X9	Y9	Z9	X10	Y10	Z10	X11	Y11	Z11	X12	Y12	Z12	X13	Y13	Z13	X14	Y14	Z14	X15	Y15	Z15	X16	Y16	Z16	X17	Y17	Z17	X18	Y18	Z18	X19	Y19	Z19	X20	Y20	Z20	X21	Y21	Z21	X22	Y22	Z22	X23	Y23	Z23	X24	Y24	Z24	X25	Y25	Z25	X26	Y26	Z26	X27	Y27	Z27	X28	Y28	Z28	X29	Y29	Z29	X30	Y30	Z30	X31	Y31	Z31	X32	Y32	Z32	

2813	18.74666666666667	2250.624476246686	940.5809119861968	895.6764272904852	1574.305857506559	307.3912215873382	1007.636655698518	1592.829655858775	288.0646363666593	958.2329259027043	1623.287518961084	315.4495711051916	998.4227220408275	2222.457597321562	1027.547557959271	871.2705128542294	1669.543047684363	120.1978065131337	1005.693494459684	1628.682446988387	148.9677780434656	913.495005157519	2114.66625572689	1010.325823302813	981.0982631559383	1701.751600407513	330.0236405456566	922.5928386161804	1681.248723753352	351.564178967636	964.6427397824021	1749.999696061731	393.6691744044651	909.7544774592805	1731.617806477237	418.4956856074966	953.2383051188924	2005.431872796579	648.6891526091548	870.9142439840926	1956.802902330017	672.2014633293056	920.4573330308792	2041.741597957641	752.9714493459317	864.0859972450198	2003.549601376001	772.4161232203161	917.4716149405592	2277.939508613746	961.2464489948188	1110.555590146435	-90287132262.58641	-6663682441.281824	16090815031.73988	2330.833334569646	88.79421793773584	1067.431368660811	2357.081919012902	105.4874293142174	1105.566291532108	2337.682761124906	135.8430614810258	1066.702770746109	2225.583992670429	1012.389041183581	1156.221510937891	2510.86596623761	107.6894284637139	1130.793564555424	2128.309229903888	1010.276088027309	1068.405596570069	2389.681478758588	247.1887323088598	1120.235847820755	2348.081912396741	247.9440247335395	1085.359739890946	2379.572996654778	326.444766047926	1131.189445661209	2339.707689164341	326.4527332589055	1095.097762318064	2384.636203648498	642.6894986567648	1146.460217921028	2327.776015002156	599.7201629786742	1129.027253719396	2313.536817440812	724.6031585020173	1167.53891723072	2259.910927122127	684.2224323780647	1147.70329792239	
2814	18.75333333333333	2252.002683845818	941.4941988670706	896.0879190170724	1563.555306976829	326.8677185792545	1010.34339034469	1581.111746808867	306.9425288785051	960.8630212757514	1612.75323797783	333.1064185368341	1001.227693359059	2223.502784964231	1029.267384882667	871.6346960547204	1652.010196089249	136.2036453344186	1007.984954468718	1611.986865256342	166.2842499691728	915.9704391707729	2115.803824351864	1011.835463339212	980.7347343641597	1692.29716396205	343.2794851376697	924.7006008702328	1672.404453376876	366.4190000154699	966.1285796264281	1743.214156436683	404.4716162307335	911.1841378306574	1725.667848168085	430.8235306254224	953.9800342674037	2006.830768816252	650.194772831106	870.9319500658897	1957.268799301031	674.8140607509054	919.0207923405147	2043.994314201536	754.0741174097602	863.0510741457606	2004.73881255602	774.6718860091114	915.2256124027415	2278.343939201687	961.6780501492311	1110.741016939262	-90420891511.30542	-6673552952.966986	16114653094.22197	2363.816739463974	77.9552163090013	1067.165307066064	2388.855176452332	96.36487250692713	1105.251675925369	2366.049995833098	125.3090697766328	1067.379897499723	2226.125655384082	1012.669624762751	1156.436321622261	2541.669053361925	112.7340567982902	1128.715117175062	2129.231029501911	1011.354395196135	1068.374950834158	2408.139074487905	241.8059585865902	1121.006805187586	2366.57396690935	239.4611649607832	1086.145126224321	2391.700363094753	319.8001471419314	1132.490088039458	2351.964207513277	316.9316466132539	1096.401451963764	2378.971317788034	637.9391052501674	1148.27392767771	2321.443296243504	596.4210965373369	1129.993855817708	2309.619611180558	721.4548316863057	1168.669845632614	2255.329314910326	682.5151261370361	1147.838050081136	
2815	18.76	2253.445205548196	942.032970411478	896.6271921664029	1553.540222085724	346.4176696700703	1012.552844218208	1570.374955585009	325.7240567642211	963.2610650177845	1602.835787743786	350.9246487342585	1003.763176412939	2224.656779948182	1030.3142368577	871.9806363356544	1635.513450536067	153.2377701425042	1011.461117133459	1596.694517686496	183.9608861510054	919.2441909781758	2116.858579929031	1012.7712879228	980.2946323178166	1683.751016020872	356.5725497589375	926.8407041791233	1664.609049204354	381.4933204370977	967.5557475161831	1737.463742500772	414.9954397912659	912.5146149980584	1720.870574912594	443.0417432650169	954.5001078901516	2008.841381137255	650.8747265728769	870.6541178299125	1958.337655451419	676.3414001348955	917.4008398695715	2046.570406477626	754.4789459900519	862.0124514558973	2006.238464547388	775.9831152179393	913.0623167172766	2278.699690282588	961.8683271167813	1111.038408962124	-90554782803.22607	-6683433206.91936	16138514688.67447	2394.758056102024	68.97585496456708	1066.682748153897	2418.533637436845	88.97773892065844	1104.759925530458	2392.456405211942	116.2917270139884	1067.895536529447	2226.684335749319	1012.826814088722	1156.618905966605	2569.397916223912	119.114964337934	1126.807556403725	2130.025590087723	1012.073544554965	1068.316881192688	2424.622822326257	237.3603703156958	1121.700174006637	2383.32385653839	232.058491035397	1086.747497585783	2402.22284541525	313.7914391525445	1133.615742579897	2362.863995754959	308.182508270853	1097.412944958774	2372.946287521635	632.7132904904818	1150.346141238354	2314.733618426012	592.8146238420861	1130.966453932733	2305.474260630097	717.8769038704954	1170.173408484512	2250.527503616042	680.4784760320176	1148.283315846703	
2816	18.76666666666667	2254.952210220157	942.2115044665547	897.2798434210218	1544.69899616095	366.1106822881042	1014.255865805863	1560.955019291717	344.405823367933	965.3937742460076	1594.007680664754	368.8696920891201	1005.942289601835	2225.910770800543	1030.711642280919	872.3180029867335	1620.191809704607	171.0430523986904	1015.97652273904	1582.839714685112	201.8005231584516	923.22169334966	2117.838358409194	1013.131358034201	979.7889263459198	1676.314303487413	369.7999230357569	928.9398873534992	1658.088988367077	396.6023152379319	968.886801068747	1732.864099449378	425.1874699030231	913.7201791136729	1717.361179100739	455.0144695820731	954.8177831415907	2011.323151033377	650.8142946253888	870.1414918438724	1959.96095578631	676.8326932505648	915.7695404051643	2049.337361940855	754.2796807845808	861.0734666748888	2008.021288885354	776.3922180120993	911.1794634569691	2278.996778764823	961.8562247049001	1111.441465961941	-90688806203.49084	-6693323207.944429	16162399826.70654	2422.791299525698	61.6561583260855	1066.036226521594	2445.3016621083	83.09222794749999	1104.146185228471	2416.176745659247	108.6598113976345	1068.2634747297	2227.20698566831	1012.914583826361	1156.758982000047	2593.489037189465	126.1867656272702	1125.156822791749	2130.699819594185	1012.42248313522	1068.215504819172	2438.746829942142	233.6911506775067	1122.298880121701	2397.906241904812	225.660510061467	1087.153092336526	2410.897718649089	308.3873955620469	1134.53015548691	2372.122339476572	300.2500159135133	1098.095179280341	2366.773458111472	627.2252654977317	1152.552963260227	2307.88900907148	589.0454803513475	1131.89716010556	2301.241770455505	714.0285546049612	1171.93705104575	2245.68160677046	678.2177652990357	1148.96335528484	
